<?xml version="1.0" standalone="no"?>
<!DOCTYPE svg PUBLIC "-//W3C//DTD SVG 1.1//EN"
  "http://www.w3.org/Graphics/SVG/1.1/DTD/svg11.dtd">
<svg xmlns="http://www.w3.org/2000/svg" version="1.1"
     width="522px" height="250px" viewBox="-15 -139 522 260">
  <defs>
    <style type="text/css"><![CDATA[
      .markmap-node {
        cursor: pointer;
      }

      .markmap-node-circle {
        fill: #fff;
        stroke-width: 1.5px;
      }

      .markmap-node-text {
        fill:  #000;
        font: 10px sans-serif;
      }

      .markmap-link {
        fill: none;
      }
    ]]></style>
  </defs>
  <g><path class="markmap-link" stroke="#98df8a" stroke-width="1.5" d="M199.5517578125,48.75C229.5517578125,48.75 229.5517578125,41.25 259.5517578125,41.25"></path><path class="markmap-link" stroke="#98df8a" stroke-width="1.5" d="M199.5517578125,48.75C229.5517578125,48.75 229.5517578125,56.25 259.5517578125,56.25"></path><path class="markmap-link" stroke="#2ca02c" stroke-width="1.5" d="M212.9453125,6.25C242.9453125,6.25 242.9453125,-8.75 272.9453125,-8.75"></path><path class="markmap-link" stroke="#2ca02c" stroke-width="1.5" d="M212.9453125,6.25C242.9453125,6.25 242.9453125,6.25 272.9453125,6.25"></path><path class="markmap-link" stroke="#2ca02c" stroke-width="1.5" d="M212.9453125,6.25C242.9453125,6.25 242.9453125,21.25 272.9453125,21.25"></path><path class="markmap-link" stroke="#ffbb78" stroke-width="1.5" d="M197.7744140625,-36.25C227.7744140625,-36.25 227.7744140625,-43.75 257.7744140625,-43.75"></path><path class="markmap-link" stroke="#ffbb78" stroke-width="1.5" d="M197.7744140625,-36.25C227.7744140625,-36.25 227.7744140625,-28.75 257.7744140625,-28.75"></path><path class="markmap-link" stroke="#ff7f0e" stroke-width="1.5" d="M182.6474609375,-71.25C212.6474609375,-71.25 212.6474609375,-78.75 242.6474609375,-78.75"></path><path class="markmap-link" stroke="#ff7f0e" stroke-width="1.5" d="M182.6474609375,-71.25C212.6474609375,-71.25 212.6474609375,-63.75 242.6474609375,-63.75"></path><path class="markmap-link" stroke="#aec7e8" stroke-width="1.5" d="M175.9580078125,-106.25C205.9580078125,-106.25 205.9580078125,-113.75 235.9580078125,-113.75"></path><path class="markmap-link" stroke="#aec7e8" stroke-width="1.5" d="M175.9580078125,-106.25C205.9580078125,-106.25 205.9580078125,-98.75 235.9580078125,-98.75"></path><path class="markmap-link" stroke="#aec7e8" stroke-width="2" d="M70.3837890625,0C100.3837890625,0 100.3837890625,-106.25 130.3837890625,-106.25"></path><path class="markmap-link" stroke="#ff7f0e" stroke-width="2" d="M70.3837890625,0C100.3837890625,0 100.3837890625,-71.25 130.3837890625,-71.25"></path><path class="markmap-link" stroke="#ffbb78" stroke-width="2" d="M70.3837890625,0C100.3837890625,0 100.3837890625,-36.25 130.3837890625,-36.25"></path><path class="markmap-link" stroke="#2ca02c" stroke-width="2" d="M70.3837890625,0C100.3837890625,0 100.3837890625,6.25 130.3837890625,6.25"></path><path class="markmap-link" stroke="#98df8a" stroke-width="2" d="M70.3837890625,0C100.3837890625,0 100.3837890625,48.75 130.3837890625,48.75"></path><path class="markmap-link" stroke="#d62728" stroke-width="2" d="M70.3837890625,0C100.3837890625,0 100.3837890625,76.25 130.3837890625,76.25"></path><path class="markmap-link" stroke="#ff9896" stroke-width="2" d="M70.3837890625,0C100.3837890625,0 100.3837890625,91.25 130.3837890625,91.25"></path><path class="markmap-link" stroke="#9467bd" stroke-width="2" d="M70.3837890625,0C100.3837890625,0 100.3837890625,106.25 130.3837890625,106.25"></path><g class="markmap-node" transform="translate(130.3837890625,106.25)"><rect class="markmap-node-rect" y="-1" x="-1" width="61.3046875" height="2" fill="#9467bd"></rect><circle class="markmap-node-circle" cx="59.3046875" stroke="#9467bd" r="4.5" style="display: none;"></circle><text class="markmap-node-text" x="10" dy="-5" text-anchor="start" style="fill-opacity: 1;">Вебирары</text></g><g class="markmap-node" transform="translate(130.3837890625,91.25)"><rect class="markmap-node-rect" y="-1" x="-1" width="162.017578125" height="2" fill="#ff9896"></rect><circle class="markmap-node-circle" cx="160.017578125" stroke="#ff9896" r="4.5" style="display: none;"></circle><text class="markmap-node-text" x="10" dy="-5" text-anchor="start" style="fill-opacity: 1;">Расписания разговорного клуба</text></g><g class="markmap-node" transform="translate(130.3837890625,76.25)"><rect class="markmap-node-rect" y="-1" x="-1" width="165.5380859375" height="2" fill="#d62728"></rect><circle class="markmap-node-circle" cx="163.5380859375" stroke="#d62728" r="4.5" style="display: none;"></circle><text class="markmap-node-text" x="10" dy="-5" text-anchor="start" style="fill-opacity: 1;">Дополнительные онлайн - курсы</text></g><g class="markmap-node" transform="translate(259.5517578125,56.25)"><rect class="markmap-node-rect" y="-0.75" x="-1" width="154.3076171875" height="1.5" fill="#98df8a"></rect><circle class="markmap-node-circle" cx="152.3076171875" stroke="#98df8a" r="4.5" style="display: none;"></circle><text class="markmap-node-text" x="10" dy="-5" text-anchor="start" style="fill-opacity: 1;">Мини-игра для изучения фраз</text></g><g class="markmap-node" transform="translate(259.5517578125,41.25)"><rect class="markmap-node-rect" y="-0.75" x="-1" width="227.90625" height="1.5" fill="#98df8a"></rect><circle class="markmap-node-circle" cx="225.90625" stroke="#98df8a" r="4.5" style="display: none;"></circle><text class="markmap-node-text" x="10" dy="-5" text-anchor="start" style="fill-opacity: 1;">Изучение основных фраз из множества наб…</text></g><g class="markmap-node" transform="translate(130.3837890625,48.75)"><rect class="markmap-node-rect" y="-1" x="-1" width="71.16796875" height="2" fill="#98df8a"></rect><circle class="markmap-node-circle" cx="69.16796875" stroke="#98df8a" r="4.5"></circle><text class="markmap-node-text" x="10" dy="-5" text-anchor="start" style="fill-opacity: 1;">Разговорник</text></g><g class="markmap-node" transform="translate(272.9453125,21.25)"><rect class="markmap-node-rect" y="-0.75" x="-1" width="75.201171875" height="1.5" fill="#2ca02c"></rect><circle class="markmap-node-circle" cx="73.201171875" stroke="#2ca02c" r="4.5" style="display: none;"></circle><text class="markmap-node-text" x="10" dy="-5" text-anchor="start" style="fill-opacity: 1;">Аудирование</text></g><g class="markmap-node" transform="translate(272.9453125,6.25)"><rect class="markmap-node-rect" y="-0.75" x="-1" width="221.01171875" height="1.5" fill="#2ca02c"></rect><circle class="markmap-node-circle" cx="219.01171875" stroke="#2ca02c" r="4.5" style="display: none;"></circle><text class="markmap-node-text" x="10" dy="-5" text-anchor="start" style="fill-opacity: 1;">Конструктор-игра для сбора фразы из рол…</text></g><g class="markmap-node" transform="translate(272.9453125,-8.75)"><rect class="markmap-node-rect" y="-0.75" x="-1" width="160.38671875" height="1.5" fill="#2ca02c"></rect><circle class="markmap-node-circle" cx="158.38671875" stroke="#2ca02c" r="4.5" style="display: none;"></circle><text class="markmap-node-text" x="10" dy="-5" text-anchor="start" style="fill-opacity: 1;">Просмотр видео на английском</text></g><g class="markmap-node" transform="translate(130.3837890625,6.25)"><rect class="markmap-node-rect" y="-1" x="-1" width="84.5615234375" height="2" fill="#2ca02c"></rect><circle class="markmap-node-circle" cx="82.5615234375" stroke="#2ca02c" r="4.5"></circle><text class="markmap-node-text" x="10" dy="-5" text-anchor="start" style="fill-opacity: 1;">Видеопрактика</text></g><g class="markmap-node" transform="translate(257.7744140625,-28.75)"><rect class="markmap-node-rect" y="-0.75" x="-1" width="130.25" height="1.5" fill="#ffbb78"></rect><circle class="markmap-node-circle" cx="128.25" stroke="#ffbb78" r="4.5" style="display: none;"></circle><text class="markmap-node-text" x="10" dy="-5" text-anchor="start" style="fill-opacity: 1;">Тест, теория, тренировка</text></g><g class="markmap-node" transform="translate(257.7744140625,-43.75)"><rect class="markmap-node-rect" y="-0.75" x="-1" width="150.845703125" height="1.5" fill="#ffbb78"></rect><circle class="markmap-node-circle" cx="148.845703125" stroke="#ffbb78" r="4.5" style="display: none;"></circle><text class="markmap-node-text" x="10" dy="-5" text-anchor="start" style="fill-opacity: 1;">Темы 3х уровней сложностей</text></g><g class="markmap-node" transform="translate(130.3837890625,-36.25)"><rect class="markmap-node-rect" y="-1" x="-1" width="69.390625" height="2" fill="#ffbb78"></rect><circle class="markmap-node-circle" cx="67.390625" stroke="#ffbb78" r="4.5"></circle><text class="markmap-node-text" x="10" dy="-5" text-anchor="start" style="fill-opacity: 1;">Грамматика</text></g><g class="markmap-node" transform="translate(242.6474609375,-63.75)"><rect class="markmap-node-rect" y="-0.75" x="-1" width="152.3056640625" height="1.5" fill="#ff7f0e"></rect><circle class="markmap-node-circle" cx="150.3056640625" stroke="#ff7f0e" r="4.5" style="display: none;"></circle><text class="markmap-node-text" x="10" dy="-5" text-anchor="start" style="fill-opacity: 1;">Мини-игра для изучения слов</text></g><g class="markmap-node" transform="translate(242.6474609375,-78.75)"><rect class="markmap-node-rect" y="-0.75" x="-1" width="158.6435546875" height="1.5" fill="#ff7f0e"></rect><circle class="markmap-node-circle" cx="156.6435546875" stroke="#ff7f0e" r="4.5" style="display: none;"></circle><text class="markmap-node-text" x="10" dy="-5" text-anchor="start" style="fill-opacity: 1;">Множество словарей на выбор</text></g><g class="markmap-node" transform="translate(130.3837890625,-71.25)"><rect class="markmap-node-rect" y="-1" x="-1" width="54.263671875" height="2" fill="#ff7f0e"></rect><circle class="markmap-node-circle" cx="52.263671875" stroke="#ff7f0e" r="4.5"></circle><text class="markmap-node-text" x="10" dy="-5" text-anchor="start" style="fill-opacity: 1;">Словарь</text></g><g class="markmap-node" transform="translate(235.9580078125,-98.75)"><rect class="markmap-node-rect" y="-0.75" x="-1" width="96.099609375" height="1.5" fill="#aec7e8"></rect><circle class="markmap-node-circle" cx="94.099609375" stroke="#aec7e8" r="4.5" style="display: none;"></circle><text class="markmap-node-text" x="10" dy="-5" text-anchor="start" style="fill-opacity: 1;">Ежедневная цель</text></g><g class="markmap-node" transform="translate(235.9580078125,-113.75)"><rect class="markmap-node-rect" y="-0.75" x="-1" width="109.5078125" height="1.5" fill="#aec7e8"></rect><circle class="markmap-node-circle" cx="107.5078125" stroke="#aec7e8" r="4.5" style="display: none;"></circle><text class="markmap-node-text" x="10" dy="-5" text-anchor="start" style="fill-opacity: 1;">Упражнения на день</text></g><g class="markmap-node" transform="translate(130.3837890625,-106.25)"><rect class="markmap-node-rect" y="-1" x="-1" width="47.57421875" height="2" fill="#aec7e8"></rect><circle class="markmap-node-circle" cx="45.57421875" stroke="#aec7e8" r="4.5"></circle><text class="markmap-node-text" x="10" dy="-5" text-anchor="start" style="fill-opacity: 1;">Задачи</text></g><g class="markmap-node" transform="translate(0,0)"><rect class="markmap-node-rect" y="-3" x="-1" width="72.3837890625" height="6" fill="#1f77b4"></rect><circle class="markmap-node-circle" cx="70.3837890625" stroke="#1f77b4" r="4.5"></circle><text class="markmap-node-text" x="10" dy="-5" text-anchor="start" style="fill-opacity: 1;">Схема курса</text></g></g>
</svg>